<svg width="32" height="30" viewBox="0 0 32 30" fill="none" xmlns="http://www.w3.org/2000/svg">
<circle cx="15.7276" cy="8.626" r="7.376" stroke="#103784" stroke-width="2.5"/>
<path fill-rule="evenodd" clip-rule="evenodd" d="M28.5158 29.1129C28.6932 28.7231 28.7693 28.3583 28.7693 28.0347C28.7693 26.9817 27.9644 25.4936 25.4823 24.1241C23.0885 22.8034 19.6117 21.9087 15.6346 21.9087C11.6576 21.9087 8.18072 22.8034 5.78697 24.1241C3.30489 25.4936 2.5 26.9817 2.5 28.0347C2.5 28.3583 2.57604 28.7231 2.75345 29.1129H0.120945C0.0411201 28.7597 0 28.3998 0 28.0347C0 23.2707 6.99986 19.4087 15.6346 19.4087C24.2694 19.4087 31.2693 23.2707 31.2693 28.0347C31.2693 28.3998 31.2281 28.7597 31.1483 29.1129H28.5158Z" fill="#103784"/>
<line x1="2.15625" y1="27.8628" x2="29.1125" y2="27.8628" stroke="#103784" stroke-width="2.5"/>
</svg>
