<svg width="25" height="28" viewBox="0 0 25 28" fill="none" xmlns="http://www.w3.org/2000/svg">
<path d="M15.1602 11.2359V20.9581M9.66016 11.2359V20.9581M4.16016 5.68034V22.0692C4.16016 23.6249 4.16016 24.4022 4.45989 24.9964C4.72354 25.5191 5.14393 25.9449 5.66138 26.2112C6.24906 26.5137 7.01877 26.5137 8.55591 26.5137H16.2644C17.8015 26.5137 18.5701 26.5137 19.1578 26.2112C19.6753 25.9449 20.0971 25.5191 20.3607 24.9964C20.6602 24.4028 20.6602 23.6262 20.6602 22.0735V5.68034M4.16016 5.68034H6.91016M4.16016 5.68034H1.41016M6.91016 5.68034H17.9102M6.91016 5.68034C6.91016 4.38606 6.91016 3.73923 7.11949 3.22876C7.3986 2.54813 7.93359 2.00705 8.60742 1.72512C9.11279 1.51367 9.75382 1.51367 11.0352 1.51367H13.7852C15.0665 1.51367 15.7072 1.51367 16.2125 1.72512C16.8864 2.00705 17.4216 2.54813 17.7007 3.22876C17.91 3.73923 17.9102 4.38606 17.9102 5.68034M17.9102 5.68034H20.6602M20.6602 5.68034H23.4102" stroke="#103784" stroke-width="2.5" stroke-linecap="round" stroke-linejoin="round"/>
</svg>
